<?xml version="1.0" encoding="UTF-8" standalone="no"?>
<svg width="474px" height="474px" viewBox="0 0 474 474" version="1.1" xmlns="http://www.w3.org/2000/svg" xmlns:xlink="http://www.w3.org/1999/xlink">
    <!-- Generator: Sketch 39.1 (31720) - http://www.bohemiancoding.com/sketch -->
    <title>Slice 1</title>
    <desc>Created with Sketch.</desc>
    <defs></defs>
    <g id="Page-1" stroke="none" stroke-width="1" fill="none" fill-rule="evenodd">
        <g id="warning">
            <circle id="Oval" fill="#C42014" cx="236.966" cy="236.966" r="236.966"></circle>
            <path d="M214.399,252.389 L207.701,152.23 C206.444,132.713 205.83,118.704 205.83,110.203 C205.83,98.633 208.865,89.601 214.915,83.131 C220.98,76.632 228.969,73.391 238.855,73.391 C250.851,73.391 258.877,77.541 262.911,85.836 C266.945,94.139 268.976,106.094 268.976,121.693 C268.976,130.898 268.482,140.252 267.517,149.715 L258.522,252.804 C257.549,265.081 255.461,274.484 252.243,281.043 C249.036,287.587 243.734,290.858 236.355,290.858 C228.819,290.858 223.599,287.7 220.673,281.346 C217.744,275.016 215.645,265.351 214.399,252.389 L214.399,252.389 Z M237.609,389.974 C229.108,389.974 221.673,387.235 215.342,381.723 C208.996,376.226 205.83,368.526 205.83,358.621 C205.83,349.974 208.865,342.617 214.915,336.552 C220.98,330.487 228.408,327.46 237.19,327.46 C245.976,327.46 253.459,330.487 259.667,336.552 C265.871,342.617 268.977,349.977 268.977,358.621 C268.977,368.372 265.841,376.035 259.559,381.618 C253.291,387.19 245.976,389.974 237.609,389.974 L237.609,389.974 Z" id="Shape" fill="#FFFFFF"></path>
        </g>
    </g>
</svg>