<?xml version="1.0" encoding="UTF-8" standalone="no"?>
<svg width="512px" height="512px" viewBox="0 0 512 512" version="1.1" xmlns="http://www.w3.org/2000/svg" xmlns:xlink="http://www.w3.org/1999/xlink">
    <!-- Generator: Sketch 39.1 (31720) - http://www.bohemiancoding.com/sketch -->
    <title>Slice 1</title>
    <desc>Created with Sketch.</desc>
    <defs></defs>
    <g id="Page-1" stroke="none" stroke-width="1" fill="none" fill-rule="evenodd">
        <g id="snapchat">
            <g id="Layer_1">
                <circle id="Oval" fill="#607EA3" cx="256" cy="256" r="256"></circle>
                <path d="M326.932038,148.945023 C323.846613,149.424066 317.051293,158.720915 314.515949,157.280101 C279.118396,138.222789 306.081839,117.046638 280,157.280106 C259.506509,184.80788 247.369629,123.399484 234.32871,157.280105 C232.465567,165.750567 232.881625,189.997939 229.155339,196.350785 C216.11442,209.055251 210.943615,284.742993 214.669901,295.329843 C225.847678,333.444467 208.081839,326.825072 182,348 C176.752075,351.726709 142.21398,364.11276 142,370.5 L269.507629,511 C398,505.5 493.5,406.5 509.5,293 L369,123 L326.932038,148.945023 Z" id="Shape" fill-opacity="0.288128397" fill="#000000"></path>
            </g>
        </g>
        <g id="drugs" transform="translate(141.000000, 123.000000)">
            <g id="Group">
                <rect id="Rectangle-path" fill="#F77400" x="47.8571686" y="0" width="180.142831" height="56.7857143"></rect>
                <path d="M57.3383702,56.7857143 L57.3383702,191.33 C70.9913006,194.926429 80.5388707,202.937946 80.6573857,212.3975 C80.6668669,212.955893 80.8564909,214.034821 81.0034495,214.006429 C81.0129307,214.063214 81.0413743,214.105804 81.0413743,214.162589 C81.0413743,214.162589 81.2784044,240.780893 81.0413743,240.998571 C81.0271525,248.858661 74.3381648,255.876429 64.1837978,260.267857 L78.2728635,260.267857 L209.037597,260.267857 C213.79716,260.267857 218.518798,256.415893 218.518798,251.669554 L218.518798,56.7857143 L57.3383702,56.7857143 L57.3383702,56.7857143 Z" id="Shape" fill="#E7BB4E"></path>
                <path d="M217.134543,231.875 L142.669185,231.875 L142.669185,99.375 L217.134543,99.375 C217.89778,99.375 218.518798,99.9949107 218.518798,100.756786 L218.518798,230.493214 C218.518798,231.255089 217.89778,231.875 217.134543,231.875 L217.134543,231.875 Z" id="Shape" fill="#F2ECBF"></path>
                <rect id="Rectangle-path" fill="#C9BE7D" x="166.372189" y="160.892857" width="52.1466091" height="9.46428571"></rect>
                <rect id="Rectangle-path" fill="#C9BE7D" x="166.372189" y="179.821429" width="52.1466091" height="9.46428571"></rect>
                <rect id="Rectangle-path" fill="#C9BE7D" x="166.372189" y="123.035714" width="52.1466091" height="9.46428571"></rect>
                <rect id="Rectangle-path" fill="#C9BE7D" x="166.372189" y="141.964286" width="52.1466091" height="9.46428571"></rect>
                <rect id="Rectangle-path" fill="#C9BE7D" x="166.372189" y="198.75" width="52.1466091" height="9.46428571"></rect>
                <rect id="Rectangle-path" fill="#C15505" x="66.8195719" y="0" width="9.48120165" height="56.7857143"></rect>
                <rect id="Rectangle-path" fill="#C15505" x="85.7819752" y="0" width="9.48120165" height="56.7857143"></rect>
                <rect id="Rectangle-path" fill="#C15505" x="104.744378" y="0" width="9.48120165" height="56.7857143"></rect>
                <rect id="Rectangle-path" fill="#C15505" x="123.706782" y="0" width="9.48120165" height="56.7857143"></rect>
                <rect id="Rectangle-path" fill="#C15505" x="142.669185" y="0" width="9.48120165" height="56.7857143"></rect>
                <rect id="Rectangle-path" fill="#C15505" x="161.631588" y="0" width="9.48120165" height="56.7857143"></rect>
                <rect id="Rectangle-path" fill="#C15505" x="180.593992" y="0" width="9.48120165" height="56.7857143"></rect>
                <rect id="Rectangle-path" fill="#C15505" x="199.556395" y="0" width="9.48120165" height="56.7857143"></rect>
                <path d="M80.6621263,212.3975 C80.8280473,225.462946 63.0128694,236.299554 40.8647823,236.602411 C18.7166953,236.905268 0.62182191,226.560804 0.451160281,213.495357 C0.285239252,200.429911 18.1004172,189.593304 40.2485042,189.290446 C62.3965913,188.987589 80.4914647,199.332054 80.6621263,212.3975 L80.6621263,212.3975 Z" id="Shape" fill="#C8C9CB"></path>
                <path d="M81.0034495,214.006429 C80.8422691,214.039554 80.6573857,214.030089 80.4914647,214.058482 C79.1972806,226.362054 62.055268,236.309018 40.8600417,236.602411 C19.3946012,236.895804 1.81645332,227.175982 0.598118906,214.683125 C0.550712898,214.702054 0.498566289,214.711518 0.451160281,214.730446 L0.451160281,240.123125 C0.451160281,240.227232 0.44641968,241.381875 0.451160281,241.888214 C0.61708131,254.953661 18.7119547,265.298125 40.8600417,264.990536 C62.8896138,264.687679 81.0129307,253.964643 81.0413743,240.998571 C81.2784044,240.776161 81.0413743,214.162589 81.0413743,214.162589 C81.0413743,214.105804 81.0129307,214.063214 81.0034495,214.006429 L81.0034495,214.006429 Z" id="Shape" fill="#E0E4E7"></path>
                <path d="M76.3007735,201.934732 L76.3007735,98.9822321 L57.3383702,98.9822321 L57.3383702,191.33 C65.5301284,193.487857 72.2238568,197.230982 76.3007735,201.934732 L76.3007735,201.934732 Z" id="Shape" fill="#F2ECBF"></path>
                <path d="M23.4999615,234.491875 L64.3497188,193.715 C61.2398847,192.385268 57.7934679,191.325268 54.086318,190.577589 L13.8054328,230.786607 C16.6924587,232.286696 19.9492515,233.535982 23.4999615,234.491875 L23.4999615,234.491875 Z" id="Shape" fill="#EBEBEB"></path>
                <rect id="Rectangle-path" fill="#F9D991" x="95.2631768" y="56.7857143" width="18.9624033" height="203.482143"></rect>
            </g>
        </g>
    </g>
</svg>