<?xml version="1.0" encoding="UTF-8" standalone="no"?>
<svg width="512px" height="512px" viewBox="0 0 512 512" version="1.1" xmlns="http://www.w3.org/2000/svg" xmlns:xlink="http://www.w3.org/1999/xlink">
    <!-- Generator: Sketch 39.1 (31720) - http://www.bohemiancoding.com/sketch -->
    <title>Slice 1</title>
    <desc>Created with Sketch.</desc>
    <defs></defs>
    <g id="Page-1" stroke="none" stroke-width="1" fill="none" fill-rule="evenodd">
        <g id="snapchat">
            <circle id="Oval" fill="#FFC91B" cx="256" cy="256" r="256"></circle>
            <path d="M317.489993,114 C314.634993,114.39 310.063,139.947 307.717,138.774 C274.963,123.259 226.693,112.915 202.559,145.67 C193.786374,156.037733 201.728076,178.637692 198,191.5 C193.669428,206.440992 178.013588,211.871393 171.529,226.694 C169.805,233.59 156.014,228.418 152.566,233.59 C140.499,243.933 164.633,257.725 168.081,266.344 C178.424,297.374 143.946,307.718 119.812,324.957 C114.956,327.991 75.198,314.8 75,320 L268,511.5 C388.5,505.5 507.5,412.5 512,262 L322.500003,77.5 L317.489993,114 Z" id="Shape" fill="#D3A218"></path>
        </g>
        <g id="hospital-sign" transform="translate(74.000000, 74.000000)" fill="#FFFFFF">
            <path d="M352.999232,113.66452 L251.335978,113.66452 L251.335978,12.0024202 C251.335978,5.37388361 245.962118,0 239.333611,0 L125.666389,0 C119.037881,0 113.664021,5.37388361 113.664021,12.0024202 L113.664021,113.66452 L12.0023676,113.66452 C5.37386004,113.66452 -2.84217094e-14,119.038403 -2.84217094e-14,125.66694 L-2.84217094e-14,239.341062 C-2.84217094e-14,245.969598 5.37386004,251.343482 12.0023676,251.343482 L113.664021,251.343482 L113.664021,352.99758 C113.664021,359.626116 119.037881,365 125.666389,365 L239.33201,365 C245.960518,365 251.334378,359.626116 251.334378,352.99758 L251.334378,251.343482 L352.997632,251.343482 C359.62614,251.343482 365,245.969598 365,239.341062 L365,125.66694 C365.0016,119.038403 359.62774,113.66452 352.999232,113.66452 Z M340.996865,227.338641 L239.333611,227.338641 C232.705103,227.338641 227.331243,232.712525 227.331243,239.341062 L227.331243,340.99516 L137.668756,340.99516 L137.668756,239.341062 C137.668756,232.712525 132.294896,227.338641 125.666389,227.338641 L24.0047352,227.338641 L24.0047352,137.66936 L125.666389,137.66936 C132.294896,137.66936 137.668756,132.295477 137.668756,125.66694 L137.668756,24.0048404 L227.329643,24.0048404 L227.329643,125.66694 C227.329643,132.295477 232.703503,137.66936 239.33201,137.66936 L340.995264,137.66936 L340.995264,227.338641 L340.996865,227.338641 Z" id="Combined-Shape"></path>
        </g>
        <g id="hospital-sign-copy" transform="translate(98.000000, 98.000000)" fill="#9CC541">
            <path d="M316.996865,203.338641 L215.333611,203.338641 C208.705103,203.338641 203.331243,208.712525 203.331243,215.341062 L203.331243,316.99516 L113.668756,316.99516 L113.668756,215.341062 C113.668756,208.712525 108.294896,203.338641 101.666389,203.338641 L0.00473515714,203.338641 L0.00473515714,113.66936 L101.666389,113.66936 C108.294896,113.66936 113.668756,108.295477 113.668756,101.66694 L113.668756,0.0048404281 L203.329643,0.0048404281 L203.329643,101.66694 C203.329643,108.295477 208.703503,113.66936 215.33201,113.66936 L316.995264,113.66936 L316.995264,203.338641 L316.996865,203.338641 Z" id="Combined-Shape"></path>
        </g>
        <g id="pharmacy-tool" transform="translate(223.000000, 201.000000)">
            <g id="Capa_1">
                <path d="M49.4999989,7 C48.5865751,7.12412049 22.7859403,23.3733163 22.0353651,23 C22.0353651,23.3733158 32.4275633,31.1210084 32,33.5 C30.6131972,41.2162659 43.5857625,43.3942695 41.9999991,47 C41.4484255,49.1947049 23.1385126,63.8703608 22.0353654,65.5163895 C18.1746701,68.8081287 25.8960606,73.1975386 26.9992078,75.9406015 C30.3083295,85.8161373 23.8749523,92.494929 16.1535618,97.9813731 C14.5999415,98.9469669 11.5633478,103.34506 11.5,105 L79.7946184,172.275253 C78.9192791,166.864397 79.7343931,161.763928 79.7946184,156.579362 C79.8980857,147.672273 79.8093139,138.988997 79.7946184,131.465938 C79.7690686,118.386271 77.7424204,108.081393 84.9544449,102.904573 C86.6034595,101.675022 88.3949114,101.285221 89.261883,101.120551 C90.3516881,100.913556 90.5402851,101.120551 93.4695562,101.120551 C98.7291477,101.120551 92.6118335,101.120551 112.930045,101.120551 L165,101.120551 L67.1715996,7 L49.4999989,7 Z" id="Shape" fill="#D3A218" style="mix-blend-mode: color-burn;"></path>
                <path d="M73.6066366,14.2388048 C71.3432062,10.9038888 68.4617134,8.14447482 65.350037,5.97582891 C63.7718163,4.89654663 62.1612936,3.99123994 60.4561539,3.20316513 C59.6109602,2.84686084 58.5414327,2.35978683 57.8615642,2.13713265 L56.7505782,1.75058427 L56.0236556,1.50632716 L55.3793957,1.32889512 C51.9574164,0.35503513 48.3047448,-0.16545141 44.5635605,0.0471213992 C40.8709564,0.3282475 36.8092955,-0.110147915 32.5093117,0.674758462 C28.2362887,1.40436134 24.3117205,4.07678753 22.1457048,8.07592153 C20.1155102,12.0966585 18.6614106,20.7795952 23.3439317,23.7481256 C26.8325498,25.5169733 32.9157576,23.3566805 35.1545164,22.3390386 C37.2732237,21.3081469 38.3829379,19.7587849 39.6638274,17.4112667 C40.9286931,15.1539048 42.9324357,12.9184338 45.3970543,12.675905 C47.8260644,12.3780726 50.3822478,12.5906454 52.9681898,13.1762288 L53.4557723,13.2781946 C53.290447,13.2162662 53.724871,13.3502043 53.8370378,13.3818886 L54.9599781,13.7099651 C55.7698177,13.9291628 56.1302268,14.1316543 56.7508326,14.3275208 C57.914977,14.7895354 59.1119321,15.3716623 60.2084204,16.0476899 C62.4011425,17.4115548 64.4076828,19.1181861 66.0151534,21.2534195 C69.3191158,25.4417951 70.9947513,31.211217 70.9476972,37.0895177 C70.8706302,42.979628 69.1036843,48.9431882 65.9711514,53.8914108 C65.5692838,54.4988852 65.1849661,55.1262342 64.72994,55.6951113 L64.1182364,56.511702 L63.3292532,57.4553178 C62.4779551,58.4493406 61.3992712,59.5637636 60.3503458,60.4875048 C58.2138343,62.3885624 55.8318783,63.9678805 53.2934991,65.2461977 C49.7293401,67.026567 45.8670869,68.177859 41.8641799,68.8939241 C61.1215247,60.7415552 58.6301996,37.8839294 58.6301996,37.8839294 C57.5960263,34.6109418 44.8799677,32.0306881 29.3505812,32.0306881 C13.8181425,32.0306881 1.10488167,34.6141102 0.0676561977,37.8839294 L0.0279781269,37.8839294 C0.0279781269,37.8839294 0.0190759956,37.9827267 0.0160238363,38.1232898 C0.00432389234,38.1852182 0,38.250315 0,38.3156999 C0,38.3456559 0,38.3810847 0.00432389234,38.4144973 C0,38.5415225 0,38.6587544 0,38.7273077 C0,53.3637233 8.35859258,65.868362 19.9575609,70.3361356 C19.4582786,70.4332047 18.9261854,70.5403552 18.2140149,70.8378996 C17.6333416,71.1293951 16.4747928,71.5608775 15.5161605,73.1940589 L15.5484625,73.1373152 C14.8642701,74.301857 14.8406159,74.7169213 14.6796145,75.4730237 C14.5687194,76.1726706 14.6010214,76.8052043 14.6765623,77.4475313 C14.8701201,78.6221545 15.308868,79.5222765 15.724216,80.1582667 C16.1319336,80.787632 16.5589816,81.2562715 16.9343972,81.5938533 C17.3494908,82.0189989 17.6643719,82.2062243 18.0336832,82.4942633 C18.4075727,82.7883512 18.7015974,82.9222893 19.0401327,83.1334219 C19.3799398,83.3376416 19.6948209,83.4914545 19.9974934,83.6386424 C20.6211512,83.9598059 21.2196288,84.1911013 21.8120021,84.4151957 C23.1419805,84.9106228 24.436096,85.2919865 25.7068117,85.6096936 L25.7068117,86.8615112 C18.3439861,88.4676169 12.5105466,94.8566108 10.7433464,103.05593 C10.7316464,103.082718 10.7181661,103.143206 10.7181661,103.17633 C10.7151139,103.203406 10.7064661,103.286937 10.697564,103.286937 L10.7092639,103.286937 C10.7064661,103.286937 10.697564,103.32035 10.697564,103.350594 C10.697564,105.720003 19.0192763,107.620773 29.2958967,107.620773 C39.5697192,107.620773 47.8911772,105.726628 47.8911772,103.357219 C47.8911772,103.327263 47.8853272,103.283481 47.8792229,103.283481 L47.9944419,103.283481 C46.9808707,98.370687 44.5104021,94.0866824 41.1222509,91.0815711 C41.5002099,90.4925313 41.8565495,89.7263475 42.0663855,88.6787495 C42.4326446,87.0858936 42.0264531,85.3020679 41.5330207,84.3547075 C41.0156797,83.2774415 40.5133451,82.7451453 40.0595908,82.2465498 C39.5943908,81.7681169 39.1701407,81.4265026 38.7697991,81.1324148 C37.1727568,79.9943725 35.8206502,79.3750886 34.4494676,78.7696305 C34.3622267,78.73593 34.2676098,78.699349 34.1834211,78.6659365 C35.1911423,78.6224426 36.1927593,78.5654109 37.2093827,78.485048 C43.6295997,77.9867404 50.2581267,76.6945973 56.5081859,73.6727798 C59.6259666,72.1700801 62.6402283,70.2324415 65.3914955,67.8595759 C66.7835345,66.6446272 68.0155895,65.4331351 69.3366658,63.9338919 L70.1434532,62.990276 L71.0418054,61.8188212 C71.6329069,61.0961313 72.1530458,60.3063282 72.7054866,59.5363999 C76.9520576,53.2816322 79.61176,45.5192682 79.9665736,37.4170181 C80.294172,29.3470284 78.2166689,20.866583 73.6066366,14.2388048 L73.6066366,14.2388048 Z" id="Shape" fill="#FFFFFF"></path>
            </g>
        </g>
    </g>
</svg>