<?xml version="1.0" encoding="UTF-8" standalone="no"?>
<svg width="439px" height="439px" viewBox="0 0 439 439" version="1.1" xmlns="http://www.w3.org/2000/svg" xmlns:xlink="http://www.w3.org/1999/xlink">
    <!-- Generator: Sketch 39.1 (31720) - http://www.bohemiancoding.com/sketch -->
    <title>Slice 1</title>
    <desc>Created with Sketch.</desc>
    <defs></defs>
    <g id="Page-1" stroke="none" stroke-width="1" fill="none" fill-rule="evenodd">
        <g id="Layer_1">
            <circle id="Oval" fill="#7AA5DA" cx="219.5" cy="219.5" r="219.5"></circle>
            <path d="M258.464845,92.6251395 C228.0972,78.221202 194.875671,75.0906566 172.5,105.500001 C154.918586,126.306101 176.187836,146.392275 165,171.999998 C163.401605,178.40216 156.196789,189.698376 153,194.499998 C141.812164,204.102313 157.303211,210.498223 160.5,218.499998 C170.089441,247.307872 175.375671,246.495519 153,262.499998 C148.497793,265.316726 123.683574,319.672381 123.5,324.499998 L240.5,438 C284.046416,433.303818 323.169243,416.805473 354.5,392.5 C396.55616,359.874078 424.971199,313.21708 435,262.5 L267.525814,94.2962376 C264.878821,94.6583089 260.639922,93.7141385 258.464845,92.6251395 Z" id="Shape" fill-opacity="0.285071332" fill="#000000" style="mix-blend-mode: multiply;"></path>
        </g>
        <g id="Group-2" transform="translate(123.000000, 79.000000)">
            <g id="girl" transform="translate(5.000000, 0.000000)">
                <g id="Group">
                    <path d="M91.485,43.514 L91.485,203.518 C91.485,203.518 0.655,212.93 0.655,168.652 C0.655,168.652 25.052,171.727 20.057,151.379 C13.725,125.583 17.267,83.805 20.057,60.971 C22.847,38.136 91.485,43.514 91.485,43.514 L91.485,43.514 Z" id="Shape" fill="#330C00"></path>
                    <path d="M91.191,43.514 L91.191,203.518 C91.191,203.518 182.021,212.93 182.021,168.652 C182.021,168.652 157.624,171.727 162.619,151.379 C168.951,125.583 165.409,83.805 162.619,60.971 C159.828,38.136 91.191,43.514 91.191,43.514 L91.191,43.514 Z" id="Shape" fill="#330C00"></path>
                    <g transform="translate(20.000000, 32.000000)">
                        <g>
                            <rect id="Rectangle-path" fill="#FDCC9B" x="56.788" y="124.41" width="29.395" height="32.923"></rect>
                            <path d="M56.788,128.288 C56.788,128.288 69.152,136.162 86.183,134.339 L86.183,124.41 L56.788,124.41 L56.788,128.288 L56.788,128.288 Z" id="Shape" fill="#FCBC85"></path>
                            <ellipse id="Oval" fill="#FCBC85" cx="14.4" cy="73.36" rx="14.343" ry="16.364"></ellipse>
                            <ellipse id="Oval" fill="#FCBC85" cx="128.568" cy="73.36" rx="14.343" ry="16.364"></ellipse>
                            <path d="M128.51,42.104 C128.51,18 110.873,0.364 71.485,0.364 C32.095,0.364 14.459,18.001 14.459,42.104 C14.459,66.208 10.344,129.701 71.485,129.701 C132.626,129.701 128.51,66.209 128.51,42.104 L128.51,42.104 Z" id="Shape" fill="#FDCC9B"></path>
                            <g transform="translate(33.000000, 48.000000)">
                                <g transform="translate(4.000000, 14.000000)" id="Oval">
                                    <ellipse fill="#3B2519" cx="6.709" cy="7.442" rx="6.173" ry="6.761"></ellipse>
                                    <circle fill="#FFFFFF" cx="4.018" cy="4.457" r="1.846"></circle>
                                </g>
                                <path d="M0.834,6.865 C3.753,7.982 8.44,3.066 19.17,7.343 C21.125,8.123 22.293,0.675 10.792,0.675 C0.834,0.675 -0.93,6.189 0.834,6.865 L0.834,6.865 Z" id="Shape" fill="#684B37"></path>
                                <g transform="translate(60.000000, 14.000000)" id="Oval">
                                    <ellipse fill="#3B2519" cx="7.023" cy="7.442" rx="6.173" ry="6.761"></ellipse>
                                    <circle fill="#FFFFFF" cx="4.332" cy="4.457" r="1.847"></circle>
                                </g>
                                <path d="M76.135,6.865 C73.216,7.982 68.53,3.066 57.8,7.343 C55.845,8.123 54.677,0.675 66.178,0.675 C76.135,0.675 77.899,6.189 76.135,6.865 L76.135,6.865 Z" id="Shape" fill="#684B37"></path>
                            </g>
                            <path d="M71.485,93.223 C65.385,93.223 61.711,88.666 61.711,90.871 C61.711,93.075 63.475,97.265 71.485,97.265 C79.495,97.265 81.258,93.076 81.258,90.871 C81.258,88.666 77.584,93.223 71.485,93.223 L71.485,93.223 Z" id="Shape" fill="#FCBC85"></path>
                            <path d="M71.485,113.493 C69.375,113.493 68.104,111.917 68.104,112.68 C68.104,113.443 68.714,114.892 71.485,114.892 C74.256,114.892 74.865,113.443 74.865,112.68 C74.865,111.917 73.594,113.493 71.485,113.493 L71.485,113.493 Z" id="Shape" fill="#FCBC85"></path>
                            <path d="M71.485,108.876 C61.816,108.876 55.992,104.938 55.992,105.936 C55.992,106.933 58.788,110.86 71.485,110.86 C84.182,110.86 86.978,106.933 86.978,105.936 C86.978,104.939 81.153,108.876 71.485,108.876 L71.485,108.876 Z" id="Shape" fill="#F7945E"></path>
                        </g>
                        <circle id="Oval" fill="#F9AA8D" cx="35.771" cy="91.048" r="8.377"></circle>
                        <circle id="Oval" fill="#F9AA8D" cx="108.229" cy="91.048" r="8.377"></circle>
                    </g>
                    <path d="M76.788,170.92 C76.788,170.92 76.787,184.159 91.485,184.159 C106.182,184.159 106.182,170.92 106.182,170.92 C106.182,170.92 90.933,165.368 76.788,170.92 L76.788,170.92 Z" id="Shape" fill="#FDCC9B"></path>
                    <path d="M91.485,0 C25.346,0 16.528,57.747 16.528,100.303 C16.528,142.86 38.559,167.573 55.771,174.475 C55.771,174.475 28.286,125.767 41.807,80.675 C52.87,43.781 91.485,54.675 91.485,54.675 C91.485,54.675 130.098,43.78 141.162,80.675 C154.683,125.767 127.198,174.475 127.198,174.475 C144.411,167.573 166.442,142.86 166.442,100.303 C166.442,57.747 157.624,0 91.485,0 L91.485,0 Z" id="Shape" fill="#401900"></path>
                    <path d="M113.85,64.864 C113.85,64.864 89.026,77.308 67.104,74.81 C45.183,72.311 36.763,95.038 38.101,110.079 L30.785,76.603 L44.013,50.118 L81.711,30.718 L117.332,32.364 L134.225,47.032 L148.569,64.864 L158.652,76.603 L153.801,112.729 L143.533,125.078 C143.534,125.078 152.824,78.728 113.85,64.864 L113.85,64.864 Z" id="Shape" fill="#401900"></path>
                </g>
            </g>
            <g id="doctor-(2)" transform="translate(0.000000, 171.000000)">
                <g id="Layer_1">
                    <g id="Group" transform="translate(0.000000, 8.005650)" fill="#E2A379">
                        <path d="M96.8152381,35.1632768 C124.467937,35.1632768 120.095238,1.4779661 120.095238,1.4779661 C120.095238,1.4779661 114.613968,12.1316384 96.6304762,12.1316384 C78.6469841,12.1316384 73.5352381,1.4779661 73.5352381,1.4779661 C73.5352381,1.4779661 69.1625397,35.1632768 96.8152381,35.1632768 L96.8152381,35.1632768 Z" id="Shape"></path>
                        <path d="M96.5688889,0.246327684 C49.0234921,0.246327684 10.9009524,13.8559322 6.40507937,30.6062147 C4.37269841,38.119209 2.09396825,52.2830508 0.184761905,66.0158192 C26.4825397,87.5079096 60.1707937,100.440113 96.8152381,100.440113 C133.459683,100.440113 167.086349,87.5079096 193.445714,66.0158192 C191.474921,52.2830508 189.19619,38.0576271 187.225397,30.6062147 C182.606349,13.8559322 144.052698,0.246327684 96.5688889,0.246327684 L96.5688889,0.246327684 Z" id="Shape"></path>
                    </g>
                    <path d="M96.5688889,8.2519774 C49.0234921,8.2519774 10.9009524,21.8615819 6.40507937,38.6118644 C4.37269841,46.1248588 2.09396825,60.2887006 0.184761905,74.0214689 C26.4825397,95.5135593 60.1707937,108.445763 96.8152381,108.445763 C133.459683,108.445763 167.086349,95.5135593 193.445714,74.0214689 C191.474921,60.2887006 189.19619,46.0632768 187.225397,38.6118644 C182.606349,21.8615819 144.052698,8.2519774 96.5688889,8.2519774 L96.5688889,8.2519774 Z" id="Shape" fill="#E9F2F4"></path>
                    <rect id="Rectangle-path" fill="#C9DEE2" x="30.3625397" y="69.9570621" width="38.8" height="6.46610169"></rect>
                    <g id="Group" transform="translate(38.800000, 53.576271)" fill="#48A1AF">
                        <rect id="Rectangle-path" x="0.492698413" y="3.44858757" width="7.6984127" height="12.9322034"></rect>
                        <path d="M5.11174603,1.29322034 C5.11174603,0.862146893 4.74222222,0.554237288 4.37269841,0.554237288 C4.0031746,0.554237288 3.63365079,0.923728814 3.63365079,1.29322034 L3.63365079,3.87966102 L5.17333333,3.87966102 L5.17333333,1.29322034 L5.11174603,1.29322034 L5.11174603,1.29322034 Z" id="Shape"></path>
                    </g>
                    <path d="M96.5073016,8.2519774 L93.8590476,8.2519774 L93.1815873,8.2519774 L91.2107937,8.2519774 L90.7796825,8.2519774 C78.6469841,8.43672316 67.4380952,9.36045198 58.2,10.7768362 C58.2,10.7768362 60.6634921,34.1163842 60.6634921,46.8638418 L96.6920635,89.3553672 L132.59746,46.9254237 C132.59746,20.6915254 132.535873,10.6536723 132.535873,10.6536723 C122.250794,9.11412429 110.426032,8.2519774 96.5073016,8.2519774 L96.5073016,8.2519774 Z" id="Shape" fill="#78DDF4"></path>
                    <path d="M132.720635,10.2225989 L121.265397,0.246327684 L96.7536508,12.439548 C96.7536508,12.439548 132.535873,32.6384181 132.720635,32.5152542 L132.720635,10.2225989 L132.720635,10.2225989 Z" id="Shape" fill="#4ECFF2"></path>
                    <polygon id="Shape" fill="#C9DEE2" points="164.438095 19.459887 124.591111 3.01751412 96.7536508 91.8186441 147.193651 32.7 140.419048 25.9259887 150.580952 25.9259887"></polygon>
                    <path d="M60.7866667,10.2225989 L72.2419048,0.246327684 L96.7536508,12.5011299 C96.7536508,12.5011299 60.9714286,32.7 60.848254,32.5768362 L60.848254,10.2225989 L60.7866667,10.2225989 L60.7866667,10.2225989 Z" id="Shape" fill="#4ECFF2"></path>
                    <polygon id="Shape" fill="#C9DEE2" points="29.007619 19.459887 69.0393651 3.01751412 96.7536508 91.8186441 46.2520635 32.7 53.0266667 25.9259887 42.8647619 25.9259887"></polygon>
                </g>
            </g>
        </g>
    </g>
</svg>