<?xml version="1.0" encoding="UTF-8" standalone="no"?>
<svg width="439px" height="439px" viewBox="0 0 439 439" version="1.1" xmlns="http://www.w3.org/2000/svg" xmlns:xlink="http://www.w3.org/1999/xlink">
    <!-- Generator: Sketch 39.1 (31720) - http://www.bohemiancoding.com/sketch -->
    <title>Slice 1</title>
    <desc>Created with Sketch.</desc>
    <defs></defs>
    <g id="Page-1" stroke="none" stroke-width="1" fill="none" fill-rule="evenodd">
        <g id="Layer_1">
            <circle id="Oval" fill="#DC4373" cx="219.5" cy="219.5" r="219.5"></circle>
            <path d="M238.547139,71.2248589 C206.473447,55.9284178 198.132731,86.7064191 174.5,119.000001 C155.930866,141.095299 151.647826,128.32354 139.831461,155.517979 C138.143269,162.316836 153.376384,177.900858 150,183 C138.183634,193.197299 144.376423,199.002415 147.752808,207.5 C157.880981,238.092882 177.132731,255.503845 153.5,272.5 C148.74486,275.49126 112.693887,328.373252 112.5,333.5 L221,438.5 C239.065689,438.5 247,438.499994 276,431.499994 C305,424.499994 332.630855,409.168313 354,392.5 C398.418865,357.852495 425.407783,311.859636 436,258 L274.576203,87.0244992 C272.050802,84.3496662 263.5,91.9999992 263.5,91.9999992 C260.704299,92.3845053 240.844412,72.3813349 238.547139,71.2248589 Z" id="Shape" fill-opacity="0.285071332" fill="#000000" style="mix-blend-mode: multiply;"></path>
        </g>
        <g id="Group-2" transform="translate(113.000000, 66.000000)">
            <g id="girl" transform="translate(5.463918, 0.000000)">
                <g id="Group">
                    <path d="M99.973299,47.5402064 L99.973299,222.348847 C99.973299,222.348847 0.715773196,232.631708 0.715773196,184.256811 C0.715773196,184.256811 27.3764124,187.616331 21.9179588,165.385598 C14.9984536,137.202779 18.8690928,91.5591993 21.9179588,66.6124448 C24.9668247,41.6645979 99.973299,47.5402064 99.973299,47.5402064 L99.973299,47.5402064 Z" id="Shape" fill="#330C00"></path>
                    <path d="M99.6520206,47.5402064 L99.6520206,222.348847 C99.6520206,222.348847 198.909546,232.631708 198.909546,184.256811 C198.909546,184.256811 172.248907,187.616331 177.707361,165.385598 C184.626866,137.202779 180.756227,91.5591993 177.707361,66.6124448 C174.657402,41.6645979 99.6520206,47.5402064 99.6520206,47.5402064 L99.6520206,47.5402064 Z" id="Shape" fill="#330C00"></path>
                    <g transform="translate(21.855670, 34.960854)">
                        <g>
                            <rect id="Rectangle-path" fill="#FDCC9B" x="62.0569897" y="135.921246" width="32.1223711" height="35.9692562"></rect>
                            <path d="M62.0569897,140.158064 C62.0569897,140.158064 75.5681649,148.760619 94.1793608,146.768943 L94.1793608,135.921246 L62.0569897,135.921246 L62.0569897,140.158064 L62.0569897,140.158064 Z" id="Shape" fill="#FCBC85"></path>
                            <ellipse id="Oval" fill="#FCBC85" cx="15.7360825" cy="80.147758" rx="15.6737938" ry="17.8781068"></ellipse>
                            <ellipse id="Oval" fill="#FCBC85" cx="140.49699" cy="80.147758" rx="15.6737938" ry="17.8781068"></ellipse>
                            <path d="M140.433608,45.9997438 C140.433608,19.6654804 121.160186,0.397679715 78.1176289,0.397679715 C35.0728866,0.397679715 15.8005567,19.666573 15.8005567,45.9997438 C15.8005567,72.3340071 11.3037526,141.701804 78.1176289,141.701804 C144.931505,141.701804 140.433608,72.3350996 140.433608,45.9997438 L140.433608,45.9997438 Z" id="Shape" fill="#FDCC9B"></path>
                            <g transform="translate(36.061856, 52.441281)">
                                <g transform="translate(4.371134, 15.295374)" id="Oval">
                                    <ellipse fill="#3B2519" cx="7.33148454" cy="8.13058363" rx="6.74575258" ry="7.38657295"></ellipse>
                                    <ellipse fill="#FFFFFF" cx="4.39080412" cy="4.86939146" rx="2.01727835" ry="2.01680427"></ellipse>
                                </g>
                                <path d="M0.911381443,7.50019573 C4.10121649,8.72054804 9.22309278,3.34968683 20.9486598,8.02242349 C23.0850515,8.87459431 24.3614227,0.737455516 11.7933196,0.737455516 C0.911381443,0.737455516 -1.01628866,6.76164769 0.911381443,7.50019573 L0.911381443,7.50019573 Z" id="Shape" fill="#684B37"></path>
                                <g transform="translate(65.567010, 15.295374)" id="Oval">
                                    <ellipse fill="#3B2519" cx="7.67461856" cy="8.13058363" rx="6.74575258" ry="7.38657295"></ellipse>
                                    <ellipse fill="#FFFFFF" cx="4.73393814" cy="4.86939146" rx="2.01837113" ry="2.0178968"></ellipse>
                                </g>
                                <path d="M83.1990722,7.50019573 C80.0092371,8.72054804 74.8884536,3.34968683 63.1628866,8.02242349 C61.0264948,8.87459431 59.7501237,0.737455516 72.3182268,0.737455516 C83.1990722,0.737455516 85.1267423,6.76164769 83.1990722,7.50019573 L83.1990722,7.50019573 Z" id="Shape" fill="#684B37"></path>
                            </g>
                            <path d="M78.1176289,101.848616 C71.4516495,101.848616 67.4367629,96.8699715 67.4367629,99.2789929 C67.4367629,101.686922 69.364433,106.264609 78.1176289,106.264609 C86.8708247,106.264609 88.7974021,101.688014 88.7974021,99.2789929 C88.7974021,96.8699715 84.7825155,101.848616 78.1176289,101.848616 L78.1176289,101.848616 Z" id="Shape" fill="#FCBC85"></path>
                            <path d="M78.1176289,123.994132 C75.8118557,123.994132 74.4229278,122.27231 74.4229278,123.105907 C74.4229278,123.939505 75.0895258,125.522577 78.1176289,125.522577 C81.145732,125.522577 81.8112371,123.939505 81.8112371,123.105907 C81.8112371,122.27231 80.4223093,123.994132 78.1176289,123.994132 L78.1176289,123.994132 Z" id="Shape" fill="#FCBC85"></path>
                            <path d="M78.1176289,118.949936 C67.5515052,118.949936 61.187134,114.647566 61.187134,115.737907 C61.187134,116.827157 64.2425567,121.117509 78.1176289,121.117509 C91.992701,121.117509 95.0481237,116.827157 95.0481237,115.737907 C95.0481237,114.648658 88.6826598,118.949936 78.1176289,118.949936 L78.1176289,118.949936 Z" id="Shape" fill="#F7945E"></path>
                        </g>
                        <ellipse id="Oval" fill="#F9AA8D" cx="39.0899588" cy="99.4723701" rx="9.15424742" ry="9.15209609"></ellipse>
                        <ellipse id="Oval" fill="#F9AA8D" cx="118.270866" cy="99.4723701" rx="9.15424742" ry="9.15209609"></ellipse>
                    </g>
                    <path d="M83.9126598,186.734662 C83.9126598,186.734662 83.911567,201.198623 99.973299,201.198623 C116.033938,201.198623 116.033938,186.734662 116.033938,186.734662 C116.033938,186.734662 99.3700825,180.668954 83.9126598,186.734662 L83.9126598,186.734662 Z" id="Shape" fill="#FDCC9B"></path>
                    <path d="M99.973299,0 C27.6976907,0 18.0615258,63.0901388 18.0615258,109.583705 C18.0615258,156.078363 42.1366392,183.077975 60.9456289,190.618594 C60.9456289,190.618594 30.9104742,137.403804 45.686,88.1395907 C57.7754639,47.831911 99.973299,59.7338968 99.973299,59.7338968 C99.973299,59.7338968 142.168948,47.8308185 154.259505,88.1395907 C169.035031,137.403804 138.999876,190.618594 138.999876,190.618594 C157.809959,183.077975 181.885072,156.078363 181.885072,109.583705 C181.885072,63.0901388 172.248907,0 99.973299,0 L99.973299,0 Z" id="Shape" fill="#401900"></path>
                    <path d="M124.413402,70.8656512 C124.413402,70.8656512 97.2861443,84.4610534 73.3301443,81.7319217 C49.3752371,79.0016975 40.174,103.831552 41.6361443,120.264246 L33.6413402,83.6908221 L48.0966804,54.7552527 L89.292433,33.5602349 L128.218474,35.3585338 L146.678866,51.3837153 L162.353753,70.8656512 L173.372289,83.6908221 L168.071196,123.159441 L156.850495,136.651053 C156.851588,136.651053 167.003546,86.0124413 124.413402,70.8656512 L124.413402,70.8656512 Z" id="Shape" fill="#401900"></path>
                </g>
            </g>
            <g id="doctor-(2)" transform="translate(0.000000, 186.822064)">
                <g id="Layer_1">
                    <g id="Group" transform="translate(0.000000, 8.746386)" fill="#E2A379">
                        <path d="M105.798095,38.4168185 C136.016508,38.4168185 131.238095,1.61471741 131.238095,1.61471741 C131.238095,1.61471741 125.248254,13.2541388 105.59619,13.2541388 C85.944127,13.2541388 80.3580952,1.61471741 80.3580952,1.61471741 C80.3580952,1.61471741 75.5796825,38.4168185 105.798095,38.4168185 L105.798095,38.4168185 Z" id="Shape"></path>
                        <path d="M105.528889,0.269119569 C53.5720635,0.269119569 11.912381,15.1379758 6.99936508,33.4381064 C4.7784127,41.6462533 2.28825397,57.1206285 0.201904762,72.1240445 C28.9396825,95.6047269 65.7536508,109.733504 105.798095,109.733504 C145.84254,109.733504 182.589206,95.6047269 211.394286,72.1240445 C209.240635,57.1206285 206.750476,41.5789734 204.596825,33.4381064 C199.549206,15.1379758 157.418413,0.269119569 105.528889,0.269119569 L105.528889,0.269119569 Z" id="Shape"></path>
                    </g>
                    <path d="M105.528889,9.01550556 C53.5720635,9.01550556 11.912381,23.8843617 6.99936508,42.1844924 C4.7784127,50.3926393 2.28825397,65.8670145 0.201904762,80.8704305 C28.9396825,104.351113 65.7536508,118.47989 105.798095,118.47989 C145.84254,118.47989 182.589206,104.351113 211.394286,80.8704305 C209.240635,65.8670145 206.750476,50.3253594 204.596825,42.1844924 C199.549206,23.8843617 157.418413,9.01550556 105.528889,9.01550556 L105.528889,9.01550556 Z" id="Shape" fill="#E9F2F4"></path>
                    <rect id="Rectangle-path" fill="#C9DEE2" x="33.1796825" y="76.4299576" width="42.4" height="7.06438868"></rect>
                    <g id="Group" transform="translate(42.400000, 58.533506)" fill="#48A1AF">
                        <rect id="Rectangle-path" x="0.538412698" y="3.76767397" width="8.41269841" height="14.1287774"></rect>
                        <path d="M5.58603175,1.41287774 C5.58603175,0.941918491 5.18222222,0.60551903 4.7784127,0.60551903 C4.37460317,0.60551903 3.97079365,1.00919838 3.97079365,1.41287774 L3.97079365,4.23863321 L5.65333333,4.23863321 L5.65333333,1.41287774 L5.58603175,1.41287774 L5.58603175,1.41287774 Z" id="Shape"></path>
                    </g>
                    <path d="M105.461587,9.01550556 L102.567619,9.01550556 L101.827302,9.01550556 L99.6736508,9.01550556 L99.2025397,9.01550556 C85.944127,9.21734524 73.6952381,10.2265436 63.6,11.7739811 C63.6,11.7739811 66.2920635,37.2730603 66.2920635,51.199998 L105.663492,97.6231236 L144.900317,51.2672779 C144.900317,22.6060438 144.833016,11.6394214 144.833016,11.6394214 C133.593651,9.95742405 120.671746,9.01550556 105.461587,9.01550556 L105.461587,9.01550556 Z" id="Shape" fill="#78DDF4"></path>
                    <path d="M145.034921,11.1684621 L132.516825,0.269119569 L105.730794,13.5905382 C105.730794,13.5905382 144.833016,35.6583429 145.034921,35.5237831 L145.034921,11.1684621 L145.034921,11.1684621 Z" id="Shape" fill="#4ECFF2"></path>
                    <polygon id="Shape" fill="#C9DEE2" points="179.695238 21.2604459 136.151111 3.29671472 105.730794 100.314319 160.850794 35.7256228 153.447619 28.3248346 164.552381 28.3248346"></polygon>
                    <path d="M66.4266667,11.1684621 L78.9447619,0.269119569 L105.730794,13.6578181 C105.730794,13.6578181 66.6285714,35.7256228 66.4939683,35.591063 L66.4939683,11.1684621 L66.4266667,11.1684621 L66.4266667,11.1684621 Z" id="Shape" fill="#4ECFF2"></path>
                    <polygon id="Shape" fill="#C9DEE2" points="31.6990476 21.2604459 75.4450794 3.29671472 105.730794 100.314319 50.5434921 35.7256228 57.9466667 28.3248346 46.8419048 28.3248346"></polygon>
                </g>
            </g>
        </g>
    </g>
</svg>