<?xml version="1.0" encoding="UTF-8" standalone="no"?>
<svg width="512px" height="512px" viewBox="0 0 512 512" version="1.1" xmlns="http://www.w3.org/2000/svg" xmlns:xlink="http://www.w3.org/1999/xlink">
    <!-- Generator: Sketch 39.1 (31720) - http://www.bohemiancoding.com/sketch -->
    <title>Slice 1</title>
    <desc>Created with Sketch.</desc>
    <defs></defs>
    <g id="Page-1" stroke="none" stroke-width="1" fill="none" fill-rule="evenodd">
        <g id="snapchat">
            <g id="Layer_1">
                <circle id="Oval" fill="#75B73B" cx="256" cy="256" r="256"></circle>
                <path d="M309,173.999997 C305.777587,174.416373 239.147909,104.252329 236.5,103 C221.396716,96.2328758 223.440798,128.523087 212.88015,128.778709 C197.590911,129.148786 212.662461,128.110529 196.551122,148.794088 C175.147751,172.720726 198.1644,189.643593 184.544484,219.092009 C182.59862,226.45438 184.113817,256.530078 180.222089,262.051857 C166.602173,273.094345 157.119745,272.865341 161.011472,282.067237 C172.685525,315.195771 144.54714,304.181313 117.307307,322.586173 C111.826383,325.82536 130.692692,367.499989 121.5,376.499989 L257.064579,512 C370.88751,512 478.499988,430.499989 503.999988,317.500005 L356.5,163.000001 L309,173.999997 Z" id="Shape" fill-opacity="0.289317255" fill="#010101"></path>
            </g>
        </g>
        <g id="chemistry" transform="translate(103.000000, 101.000000)">
            <g id="Group">
                <path d="M128.003961,137.148985 L128.003961,5.03779698 L54.1881711,5.03779698 L54.1881711,137.148985 C22.55475,151.295119 0.503960526,183.060108 0.503960526,219.983801 C0.503960526,270.06622 41.0623816,310.664147 91.0960658,310.664147 C104.382908,310.664147 116.998697,307.802678 128.366329,302.657408 L169.065671,173.810713 C159.536724,157.723348 145.189618,144.833305 128.003961,137.148985 L128.003961,137.148985 Z" id="Shape" fill="#C1E8E6"></path>
                <path d="M159.120671,201.639503 L132.070539,277.327365 C120.515013,285.622937 106.369224,290.512959 91.0960658,290.512959 C52.2421184,290.512959 20.6355395,258.875594 20.6355395,219.983801 C20.6355395,213.696631 21.4743553,207.537084 23.0714605,201.639503 L159.120671,201.639503 L159.120671,201.639503 Z" id="Shape" fill="#6DA8D6"></path>
                <path d="M129.681592,10.075594 L52.5105395,10.075594 C49.7303684,10.075594 47.4776447,7.82000432 47.4776447,5.03779698 C47.4776447,2.25558963 49.7303684,0 52.5105395,0 L129.681592,0 C132.461763,0 134.714487,2.25558963 134.714487,5.03779698 C134.714487,7.82000432 132.461763,10.075594 129.681592,10.075594 L129.681592,10.075594 Z" id="Shape" fill="#98D9D5"></path>
                <path d="M304.551197,288.699352 L248.316987,131.358877 L248.316987,65.4913607 L184.238171,65.4913607 L184.238171,131.358877 L128.003961,288.699352 C126.111592,293.992397 126.386724,298.855551 128.366329,302.657408 C130.896197,307.540713 136.251197,310.664147 143.458303,310.664147 L289.096855,310.664147 C301.913961,310.664147 308.866066,300.783348 304.551197,288.699352 L304.551197,288.699352 Z" id="Shape" fill="#F2EBD9"></path>
                <polygon id="Shape" fill="#FFCC75" points="244.854355 181.488315 283.815671 290.512959 148.739487 290.512959 187.700803 181.488315"></polygon>
                <path d="M249.996632,70.5291577 L182.559868,70.5291577 C179.779697,70.5291577 177.526974,68.273568 177.526974,65.4913607 C177.526974,62.7091533 179.779697,60.4535637 182.559868,60.4535637 L249.996632,60.4535637 C252.776803,60.4535637 255.029526,62.7091533 255.029526,65.4913607 C255.029526,68.273568 252.776803,70.5291577 249.996632,70.5291577 L249.996632,70.5291577 Z" id="Shape" fill="#FFCC75"></path>
            </g>
        </g>
    </g>
</svg>